<svg width="99" height="100" viewBox="0 0 99 100" fill="none" xmlns="http://www.w3.org/2000/svg">
<path d="M49.5 6.25C25.5814 6.25 6.1875 25.8398 6.1875 50C6.1875 74.1602 25.5814 93.75 49.5 93.75C73.4186 93.75 92.8125 74.1602 92.8125 50C92.8125 25.8398 73.4186 6.25 49.5 6.25ZM49.5 86.3281C29.642 86.3281 13.5352 70.0586 13.5352 50C13.5352 29.9414 29.642 13.6719 49.5 13.6719C69.358 13.6719 85.4648 29.9414 85.4648 50C85.4648 70.0586 69.358 86.3281 49.5 86.3281ZM40.9922 34.375H36.3516C35.9262 34.375 35.5781 34.7266 35.5781 35.1562V64.8438C35.5781 65.2734 35.9262 65.625 36.3516 65.625H40.9922C41.4176 65.625 41.7656 65.2734 41.7656 64.8438V35.1562C41.7656 34.7266 41.4176 34.375 40.9922 34.375ZM62.6484 34.375H58.0078C57.5824 34.375 57.2344 34.7266 57.2344 35.1562V64.8438C57.2344 65.2734 57.5824 65.625 58.0078 65.625H62.6484C63.0738 65.625 63.4219 65.2734 63.4219 64.8438V35.1562C63.4219 34.7266 63.0738 34.375 62.6484 34.375Z" fill="white"/>
</svg>
